<?xml version="1.0" encoding="utf-8"?>
<!-- Generator: Adobe Illustrator 16.0.0, SVG Export Plug-In . SVG Version: 6.00 Build 0)  -->
<!DOCTYPE svg PUBLIC "-//W3C//DTD SVG 1.1//EN" "http://www.w3.org/Graphics/SVG/1.1/DTD/svg11.dtd">
<svg version="1.1" id="Layer_1" xmlns="http://www.w3.org/2000/svg" xmlns:xlink="http://www.w3.org/1999/xlink" x="0px" y="0px"
	 width="299.999px" height="400px" viewBox="156.307 119.5 299.999 400" enable-background="new 156.307 119.5 299.999 400"
	 xml:space="preserve">
<path fill="#8CC540" d="M444.831,213.436C422.37,158.387,368.455,119.5,306.057,119.5c-62.394,0-116.304,38.887-138.771,93.936
	c-7.479,17.683-10.979,36.865-10.979,57.573c0,30.815,8.983,59.604,24.965,83.843c3.485,5.559,7.485,11.113,11.974,16.157
	L306.057,519.5l115.309-151.514l6.981-9.094c17.479-24.751,27.959-55.054,27.959-87.886
	C455.817,250.301,451.813,231.116,444.831,213.436L444.831,213.436z M306.057,328.084c-34.438,0-62.394-28.286-62.394-63.135
	c0-34.844,27.955-63.125,62.394-63.125c34.448,0,62.397,28.281,62.397,63.125C368.455,299.798,340.505,328.084,306.057,328.084z"/>
</svg>
