<svg xmlns="http://www.w3.org/2000/svg" width="299.999" height="400" viewBox="156.307 119.5 299.999 400"><path fill="#0275D8" d="M444.831 213.436C422.37 158.387 368.454 119.5 306.057 119.5c-62.393 0-116.304 38.887-138.77 93.936-7.48 17.682-10.98 36.865-10.98 57.573 0 30.815 8.983 59.604 24.965 83.843 3.486 5.558 7.485 11.113 11.974 16.157L306.057 519.5l115.309-151.514 6.981-9.093c17.48-24.751 27.959-55.054 27.959-87.886-.489-20.706-4.493-39.891-11.475-57.571zM306.057 328.084c-34.438 0-62.393-28.286-62.393-63.135 0-34.844 27.954-63.125 62.393-63.125 34.448 0 62.397 28.281 62.397 63.125 0 34.849-27.949 63.135-62.397 63.135z"/></svg>